<svg id="Layer_1" data-name="Layer 1" xmlns="http://www.w3.org/2000/svg" xmlns:xlink="http://www.w3.org/1999/xlink" viewBox="0 0 344.89 99.28"><defs><style>.cls-1{font-size:74.58px;fill:#1b191c;font-family:QanelasSoftDEMO-UltraLight, Qanelas Soft DEMO;font-weight:100;}.cls-2{letter-spacing:-0.02em;}.cls-3,.cls-4{fill:#232126;}.cls-3{letter-spacing:-0.02em;}.cls-4{letter-spacing:0em;}.cls-5{fill:url(#linear-gradient);}</style><linearGradient id="linear-gradient" x1="248.43" y1="96.89" x2="338.44" y2="-18.15" gradientUnits="userSpaceOnUse"><stop offset="0" stop-color="#1c191e"/><stop offset="0.09" stop-color="#2b2530"/><stop offset="0.18" stop-color="#352d3b"/><stop offset="0.28" stop-color="#382f3f"/><stop offset="0.67" stop-color="#744599"/><stop offset="0.89" stop-color="#7247a0"/><stop offset="1" stop-color="#904bcf"/></linearGradient></defs><title>webzone-logo</title><text class="cls-1" transform="translate(0 83.1)">WE<tspan class="cls-2" x="102.92" y="0">B</tspan><tspan class="cls-3" x="152.3" y="0">z</tspan><tspan class="cls-4" x="185.34" y="0">one</tspan></text><path class="cls-5" d="M378.4,16.73V85A7.39,7.39,0,0,1,371,92.43H347.4a1.24,1.24,0,0,1,0-2.47h23.66a4.87,4.87,0,0,0,4.88-4.87V16.67a4.87,4.87,0,0,0-4.87-4.87H197.75a4.84,4.84,0,0,0-4.84,4.84V50.91a1.23,1.23,0,1,1-2.46,0V16.73a7.39,7.39,0,0,1,7.39-7.4H371A7.39,7.39,0,0,1,378.4,16.73Z" transform="translate(-33.51 -9.33)"/></svg>