<?xml version="1.0" encoding="utf-8"?>
<!-- Generator: Adobe Illustrator 24.0.2, SVG Export Plug-In . SVG Version: 6.00 Build 0)  -->
<svg version="1.1" id="Layer_1" xmlns="http://www.w3.org/2000/svg" xmlns:xlink="http://www.w3.org/1999/xlink" x="0px" y="0px"
	 viewBox="0 0 143 40.9" style="enable-background:new 0 0 143 40.9;" xml:space="preserve">
<style type="text/css">
	.st0{fill:#1B191C;}
	.st1{font-family:'QanelasSoft-Medium';}
	.st2{font-size:29.2379px;}
	.st3{fill:#232126;}
	.st4{fill:url(#SVGID_1_);}
</style>
<g>
	<text transform="matrix(1 0 0 1 5.3401 34.5959)"><tspan x="0" y="0" class="st0 st1 st2">WEB</tspan><tspan x="60.6" y="0" class="st3 st1 st2">zone</tspan></text>
	<linearGradient id="SVGID_1_" gradientUnits="userSpaceOnUse" x1="90.585" y1="34.2541" x2="121.7431" y2="-5.5656">
		<stop  offset="0" style="stop-color:#1C191E"/>
		<stop  offset="8.735297e-02" style="stop-color:#2B2530"/>
		<stop  offset="0.181" style="stop-color:#352D3B"/>
		<stop  offset="0.2809" style="stop-color:#382F3F"/>
		<stop  offset="0.6685" style="stop-color:#744599"/>
		<stop  offset="0.8876" style="stop-color:#7247A0"/>
		<stop  offset="1" style="stop-color:#904BCF"/>
	</linearGradient>
	<path class="st4" d="M138,8.3v17.6c0,1.3-1,2.3-2.3,2.3h-6.4c-0.7,0-1.2-0.6-1.2-1.2c0-0.7,0.6-1.2,1.2-1.2h4.8
		c0.8,0,1.5-0.7,1.5-1.5V9.9c0-0.8-0.7-1.5-1.5-1.5H74c-0.8,0-1.5,0.7-1.5,1.5v7.8c0,0.7-0.6,1.2-1.2,1.2c-0.7,0-1.2-0.5-1.2-1.2
		V8.3c0-1.3,1-2.3,2.3-2.3h63.3C136.9,6,138,7,138,8.3z"/>
</g>
</svg>
