<?xml version="1.0" encoding="utf-8"?>
<!-- Generator: Adobe Illustrator 24.0.2, SVG Export Plug-In . SVG Version: 6.00 Build 0)  -->
<svg version="1.1" id="Layer_1" xmlns="http://www.w3.org/2000/svg" xmlns:xlink="http://www.w3.org/1999/xlink" x="0px" y="0px"
	 viewBox="0 0 400 122.5" style="enable-background:new 0 0 400 122.5;" xml:space="preserve">
<style type="text/css">
	.st0{fill:#1B191C;}
	.st1{font-family:'QanelasSoft-Medium';}
	.st2{font-size:74.5843px;}
	.st3{fill:#232126;}
	.st4{fill:url(#SVGID_1_);}
</style>
<text transform="matrix(1 0 0 1 31.4677 89.7719)"><tspan x="0" y="0" class="st0 st1 st2">WEB</tspan><tspan x="154.6" y="0" class="st3 st1 st2">zone</tspan></text>
<linearGradient id="SVGID_1_" gradientUnits="userSpaceOnUse" x1="248.9219" y1="88.9007" x2="328.4041" y2="-12.6771">
	<stop  offset="0" style="stop-color:#1C191E"/>
	<stop  offset="8.735297e-02" style="stop-color:#2B2530"/>
	<stop  offset="0.181" style="stop-color:#352D3B"/>
	<stop  offset="0.2809" style="stop-color:#382F3F"/>
	<stop  offset="0.6685" style="stop-color:#744599"/>
	<stop  offset="0.8876" style="stop-color:#7247A0"/>
	<stop  offset="1" style="stop-color:#904BCF"/>
</linearGradient>
<path class="st4" d="M369.8,22.6v44.9c0,3.3-2.6,5.9-5.9,5.9h-16.3c-1.7,0-3.1-1.4-3.1-3.1c0-1.7,1.4-3.1,3.1-3.1h12.1
	c2.1,0,3.7-1.7,3.7-3.7V26.7c0-2-1.7-3.7-3.7-3.7H206.7c-2,0-3.7,1.7-3.7,3.7v19.8c0,1.7-1.4,3.1-3.2,3.1c-1.7,0-3.1-1.4-3.1-3.1
	V22.6c0-3.2,2.6-5.9,5.9-5.9h161.4C367.2,16.7,369.8,19.3,369.8,22.6z"/>
</svg>
